<svg id="Layer_1" data-name="Layer 1" xmlns="http://www.w3.org/2000/svg" xmlns:xlink="http://www.w3.org/1999/xlink" viewBox="0 0 1000 1000"><defs><style>.cls-1{fill:none;}.cls-2{fill:url(#linear-gradient);}.cls-3{fill:url(#linear-gradient-2);}.cls-4{fill:#342c2a;}</style><linearGradient id="linear-gradient" x1="221.88" y1="639.9" x2="636.13" y2="639.9" gradientUnits="userSpaceOnUse"><stop offset="0" stop-color="#a11d21"/><stop offset="1" stop-color="#ed1c24"/></linearGradient><linearGradient id="linear-gradient-2" x1="227.11" y1="475.46" x2="805.49" y2="475.46" xlink:href="#linear-gradient"/></defs><title>logo</title><rect class="cls-1" width="1000" height="1000"/><path class="cls-2" d="M373.09,650.18c-1,3.08-2.78,6.13-2.94,9.25-.4,7.8-.82,15.73.17,23.43a93.76,93.76,0,0,0,5.85,23.74,236.26,236.26,0,0,0,15.29,29.83c9.9,16.75,23.93,29.87,39.21,41.58a168.36,168.36,0,0,0,23,15.19c8,4.29,16.85,7.15,25.55,11.31-5.75-.34-11.56-.29-17.24-1.12-8.24-1.21-16.43-2.91-24.58-4.67-5.57-1.2-11-2.84-16.56-4.3a118.66,118.66,0,0,1-11.57-3.19c-11.37-4.3-22.58-9-34-13.26-18.63-6.93-35.33-17.4-51.3-28.82-18.66-13.35-36.5-27.92-51.06-45.87-10.49-12.94-20.66-26.18-30.19-39.84-5.85-8.38-10.35-17.73-15.19-26.78a76.47,76.47,0,0,1-5.51-13c-.48-1.53.42-4.13,1.58-5.44,6.64-7.45,13.3-14.89,20.42-21.87,10-9.81,20-19.6,30.68-28.68,9.79-8.36,20.23-16,30.68-23.56,11.33-8.17,22.72-16.32,34.62-23.6,10.9-6.68,22.45-12.33,33.84-18.18,6.28-3.23,12.72-6.19,19.26-8.84s13-4.73,19.63-6.93c4.56-1.52,9.15-3,13.81-4.13,6.55-1.62,13.21-2.81,19.77-4.42,16.33-4,32.92-2.35,49.43-2.4a85.53,85.53,0,0,1,27.72,4.87c7,2.37,14.49,3.56,21.33,6.33a163.18,163.18,0,0,1,23.29,11.65c11.61,7,22.59,15,31.81,25.17a142.47,142.47,0,0,1,21.89,31.62c6,11.83,9.76,24.3,12.51,37,1.7,7.87,1.87,16.17,1.83,24.28-.06,15-2,29.94-7.29,44.08-9.54,25.29-24.27,46.81-46.65,62.67-9.49,6.72-19.24,12.75-30.45,16.21-7.51,2.32-14.74,6.28-22.38,7.22-13,1.59-25.91,6.88-39.24,1.72-1.84-.71-4-.62-6-.85a87.71,87.71,0,0,1-27.06-7.4c-4.62-2.13-9.61-3.58-14-6.09-7.62-4.36-15.41-8.68-22.23-14.14a132.42,132.42,0,0,1-35.06-42.17C383,672.64,381.26,667,379,661.52c-1.5-3.69-3-7.36-4.56-11Z"/><path class="cls-3" d="M227.11,365.12c9.56-20.55,22.16-39.28,36.44-56.82,38-46.64,85.58-79.83,143-97.7,84.79-26.4,166.91-18.37,244.28,25.24,66.64,37.56,112.48,93.7,137.6,166,18,51.68,22.07,104.94,10.82,158.51-10.54,50.18-31.56,95.92-65.1,135.29-19.63,23-41.73,43.33-67.17,59.78l-.93-1c3.1-2.62,6.35-5.09,9.26-7.9,8.72-8.4,17.83-16.48,25.81-25.55A150.21,150.21,0,0,0,724,685.38a146.31,146.31,0,0,0,6.81-18.2c2.51-8,5.38-15.92,6.65-24.11,2.47-16,5-32.13,2.26-48.45-1.26-7.35-1.89-14.82-3.54-22.07-2.61-11.47-5.1-23.07-9-34.13a261.3,261.3,0,0,0-15.3-35,255.27,255.27,0,0,0-19-29.84c-8.55-11.85-17.21-23.74-27.05-34.49a287.65,287.65,0,0,0-33-31c-15.43-12.25-31.66-23.57-48.16-34.36-9.18-6-19.56-10.18-29.44-15.11-5.9-2.94-11.73-6.13-17.87-8.5-7.89-3-16-5.43-24.1-8-8.54-2.74-17.09-5.47-25.69-8a89.23,89.23,0,0,0-12.18-2.66c-14.64-2.13-29.42-3.47-43.93-6.25-19.28-3.7-38.64-2.19-57.94-1.87-11.48.19-23,2.5-34.39,4.1-7.39,1-14.78,2.22-22,3.86-8.56,1.93-17,4.29-25.48,6.73-7,2-14,4.11-20.7,6.78s-13.32,6-19.81,9.29c-7.63,3.89-15.1,8.1-22.63,12.17Z"/><path class="cls-4" d="M194.53,533.5c0-8.66-.07-16.53,0-24.4.12-11.25-.23-22.54.71-33.73.75-8.94,3.1-17.75,4.74-26.62a33.7,33.7,0,0,0,.79-4.12c.39-6.84,3.41-11.69,9.87-14.55,11.68-5.17,23.11-10.92,34.89-15.84,6.61-2.76,13.68-4.51,20.61-6.45,12.91-3.61,25.78-7.51,38.86-10.35,9.21-2,18.82-2.15,28.16-3.68,26.59-4.35,53.34-2.11,80-1.95,10.79.07,21.6,2.68,32.35,4.47,11.31,1.89,22.6,4,33.81,6.39,5.33,1.14,10.44,3.24,15.69,4.8,6.72,2,13.53,3.71,20.18,5.89,5.08,1.66,10,3.84,15,5.83,4.39,1.76,8.75,3.59,13.13,5.39l-.17,1.41-13.65-1.95c-2.28-.33-4.54-.7-6.82-1-6.63-.9-13.23-2.24-19.89-2.55-10.29-.48-20.62-.3-30.93-.3-7,0-14.1-.34-21.07.38-10.14,1.06-20.19,2.92-30.27,4.46-6.89,1.05-13.79,2-20.64,3.27-4.24.76-8.45,1.76-12.6,2.93-9,2.54-18.17,4.79-27,8-14.33,5.25-28.56,10.86-42.57,16.92-10.92,4.72-21.66,10-32.09,15.69-12.29,6.75-24.61,13.63-36.11,21.62-17.82,12.38-35,25.75-52.39,38.69A25.59,25.59,0,0,1,194.53,533.5Z"/></svg>