<?xml version="1.0" encoding="iso-8859-1"?>
<!-- Generator: Adobe Illustrator 19.0.0, SVG Export Plug-In . SVG Version: 6.00 Build 0)  -->
<svg version="1.1" id="Layer_1" xmlns="http://www.w3.org/2000/svg" xmlns:xlink="http://www.w3.org/1999/xlink" x="0px" y="0px"
	 viewBox="0 0 512 512" style="enable-background:new 0 0 512 512;" xml:space="preserve">
<rect x="392.777" y="117.841" style="fill:#FFB819;" width="104.265" height="119.783"/>
<circle style="fill:#0071CE;" cx="450.123" cy="161.931" r="22.405"/>
<rect x="39.896" y="104.798" style="fill:#00B3E3;" width="352.882" height="132.826"/>
<rect x="27.91" y="106.976" style="fill:#333E48;" width="23.979" height="299.73"/>
<rect x="27.91" y="106.976" style="opacity:0.2;enable-background:new    ;" width="23.979" height="35.1"/>
<rect x="203.556" y="106.976" style="fill:#333E48;" width="23.979" height="130.648"/>
<rect x="51.885" y="117.841" style="opacity:0.1;enable-background:new    ;" width="327.32" height="30.232"/>
<rect x="379.212" y="106.976" style="fill:#333E48;" width="23.979" height="299.73"/>
<rect x="379.212" y="106.976" style="opacity:0.2;enable-background:new    ;" width="23.979" height="35.1"/>
<rect x="99.857" y="351.74" style="fill:#A4A9AD;" width="20.732" height="54.966"/>
<rect x="99.857" y="395.04" style="opacity:0.1;enable-background:new    ;" width="20.732" height="11.663"/>
<rect x="310.499" y="351.74" style="fill:#A4A9AD;" width="20.734" height="54.966"/>
<rect x="310.499" y="395.04" style="opacity:0.1;enable-background:new    ;" width="20.732" height="11.663"/>
<path style="fill:#A4A9AD;" d="M345.725,336.764v-51.722c0-9.916-8.116-18.032-18.03-18.032H103.395
	c-9.916,0-18.03,8.116-18.03,18.032v51.722H345.725z"/>
<circle style="opacity:0.2;enable-background:new    ;" cx="215.541" cy="288.908" r="5.861"/>
<circle style="opacity:0.2;enable-background:new    ;" cx="173.18" cy="288.908" r="5.859"/>
<circle style="opacity:0.2;enable-background:new    ;" cx="130.808" cy="288.908" r="5.861"/>
<circle style="opacity:0.2;enable-background:new    ;" cx="257.913" cy="288.908" r="5.859"/>
<circle style="opacity:0.2;enable-background:new    ;" cx="300.274" cy="288.908" r="5.861"/>
<rect x="85.365" y="307.831" style="opacity:0.1;enable-background:new    ;" width="260.357" height="28.935"/>
<path style="fill:#D1D3D3;" d="M345.725,355.247H85.365c-10.207,0-18.479-8.276-18.479-18.481c0-10.206,8.273-18.479,18.479-18.479
	h260.359c10.207,0,18.479,8.274,18.479,18.479S355.931,355.247,345.725,355.247z"/>
<path style="fill:#0071CE;" d="M416.128,94.369c0-6.087-4.981-11.069-11.069-11.069H26.031c-6.087,0-11.068,4.982-11.068,11.069
	v12.399c0,6.087,4.981,11.069,11.068,11.069h379.027c6.088,0,11.069-4.982,11.069-11.069L416.128,94.369L416.128,94.369z"/>
<path style="fill:#FFFFFF;" d="M474.194,215.103h-48.167c-4.422,0-8.005-3.583-8.005-8.005s3.583-8.005,8.005-8.005h48.167
	c4.422,0,8.005,3.583,8.005,8.005S478.615,215.103,474.194,215.103z"/>
<path style="fill:#A4A9AD;" d="M503.995,424.425c0,2.349-1.922,4.276-4.275,4.276H12.279c-2.351,0-4.275-1.926-4.275-4.276v-15.299
	c0-2.351,1.923-4.276,4.275-4.276h487.441c2.352,0,4.275,1.924,4.275,4.276V424.425z"/>
<path style="fill:#1E252B;" d="M499.721,396.846h-88.53V245.63h85.847c4.422,0,8.005-3.583,8.005-8.005V117.836
	c0-4.421-3.583-8.005-8.005-8.005h-73.175c0.162-1.001,0.27-2.019,0.27-3.064V94.369c0-10.517-8.557-19.074-19.074-19.074H26.031
	c-10.517,0-19.073,8.557-19.073,19.074v12.399c0,8.372,5.428,15.484,12.943,18.044v272.035h-7.623
	C5.508,396.846,0,402.354,0,409.126v15.299c0,6.772,5.508,12.28,12.279,12.28h487.441c6.771,0,12.279-5.508,12.279-12.28v-15.299
	C512,402.354,506.492,396.846,499.721,396.846z M411.19,125.841h77.842v103.778H411.19V125.841z M22.968,94.369
	c0-1.662,1.402-3.064,3.063-3.064h379.027c1.662,0,3.064,1.402,3.064,3.064v12.399c0,1.662-1.402,3.064-3.064,3.064H26.031
	c-1.661,0-3.063-1.402-3.063-3.064V94.369z M395.181,125.841v271.005h-7.97V125.841H395.181z M85.365,347.242
	c-5.776,0-10.474-4.699-10.474-10.477c0-5.776,4.698-10.474,10.474-10.474h260.359c5.776,0,10.474,4.698,10.474,10.474
	c0,5.777-4.698,10.477-10.474,10.477H85.365z M323.229,363.251v33.595h-4.723v-33.595H323.229z M302.496,363.251v33.595H128.594
	v-33.595H302.496z M112.584,363.251v33.595h-4.723v-33.595H112.584z M91.853,363.251v33.595H59.889v-52.859
	c3.152,11.103,13.375,19.265,25.475,19.265h6.488V363.251z M93.37,310.28v-25.238c0-5.529,4.498-10.027,10.025-10.027h224.301
	c5.528,0,10.025,4.499,10.025,10.027v25.238H93.37z M339.238,363.251h6.487c12.101,0,22.326-8.162,25.476-19.269v52.863h-31.964
	V363.251z M353.73,311.519v-26.478c0-14.356-11.678-26.037-26.035-26.037H103.395c-14.355,0-26.035,11.679-26.035,26.037v26.478
	c-8.434,2.681-15.046,9.48-17.471,18.025V245.63h311.312v83.918C368.777,321.001,362.165,314.2,353.73,311.519z M59.889,229.62
	V125.842h135.661V229.62H59.889z M211.56,229.62V125.842h7.97V229.62H211.56z M235.538,229.62V125.842h135.662V229.62H235.538z
	 M43.88,125.841v271.005h-7.97V125.841H43.88z M495.991,420.696H16.01v-7.84h479.981V420.696z"/>
<g>
</g>
<g>
</g>
<g>
</g>
<g>
</g>
<g>
</g>
<g>
</g>
<g>
</g>
<g>
</g>
<g>
</g>
<g>
</g>
<g>
</g>
<g>
</g>
<g>
</g>
<g>
</g>
<g>
</g>
</svg>
