<?xml version="1.0" encoding="iso-8859-1"?>
<!-- Generator: Adobe Illustrator 19.0.0, SVG Export Plug-In . SVG Version: 6.00 Build 0)  -->
<svg version="1.1" id="Capa_1" xmlns="http://www.w3.org/2000/svg" xmlns:xlink="http://www.w3.org/1999/xlink" x="0px" y="0px"
	 viewBox="0 0 468.293 468.293" style="enable-background:new 0 0 468.293 468.293;" xml:space="preserve">
<rect x="218.537" y="260.371" style="fill:#64798A;" width="31.22" height="207.922"/>
<circle style="fill:#E56353;" cx="234.146" cy="143.61" r="143.61"/>
<circle style="fill:#EBF0F3;" cx="234.146" cy="143.61" r="118.634"/>
<path style="fill:#3A556A;" d="M270.985,468.293h-73.678l0,0c0-6.868,5.62-12.488,12.488-12.488h49.327
	C265.366,455.805,270.985,461.424,270.985,468.293L270.985,468.293z"/>
<path style="fill:#2D93BA;" d="M303.454,79.922v89.912H164.839V79.922c0-6.868,5.62-12.488,12.488-12.488h113.639
	C297.834,67.434,303.454,73.054,303.454,79.922z"/>
<path style="fill:#1C75A1;" d="M309.073,167.337v34.341c0,2.498-1.873,4.371-4.371,4.371H163.59c-2.498,0-4.371-1.873-4.371-4.371
	v-34.341c0-2.498,1.873-4.371,4.371-4.371h141.112C307.2,163.59,309.073,165.463,309.073,167.337z"/>
<g>
	<path style="fill:#3A556A;" d="M197.307,219.785h-23.102c-1.873,0-3.122-1.249-3.122-3.122v-10.615h29.346v10.615
		C200.429,218.537,199.18,219.785,197.307,219.785z"/>
	<path style="fill:#3A556A;" d="M294.088,219.785h-23.102c-1.873,0-3.122-1.249-3.122-3.122v-10.615h29.346v10.615
		C297.21,218.537,295.961,219.785,294.088,219.785z"/>
</g>
<circle style="fill:#E1E6E9;" cx="286.595" cy="184.819" r="12.488"/>
<path style="fill:#F6C358;" d="M286.595,192.312c-4.371,0-7.493-3.746-7.493-7.493c0-4.371,3.746-7.493,7.493-7.493
	c4.371,0,7.493,3.746,7.493,7.493C294.088,189.19,290.341,192.312,286.595,192.312z"/>
<circle style="fill:#E1E6E9;" cx="181.698" cy="184.819" r="12.488"/>
<path style="fill:#F6C358;" d="M181.698,192.312c-4.371,0-7.493-3.746-7.493-7.493c0-4.371,3.746-7.493,7.493-7.493
	c4.371,0,7.493,3.746,7.493,7.493C189.815,189.19,186.068,192.312,181.698,192.312z"/>
<g>
	<path style="fill:#E1E6E9;" d="M229.151,89.912v51.2c0,2.498-1.873,4.371-4.371,4.371h-43.707c-2.498,0-4.371-1.873-4.371-4.371
		v-51.2c0-2.498,1.873-4.371,4.371-4.371h43.707C227.278,85.541,229.151,87.415,229.151,89.912z"/>
	<path style="fill:#E1E6E9;" d="M291.59,89.912v51.2c0,2.498-1.873,4.371-4.371,4.371h-43.707c-2.498,0-4.371-1.873-4.371-4.371
		v-51.2c0-2.498,1.873-4.371,4.371-4.371h43.707C289.717,85.541,291.59,87.415,291.59,89.912z"/>
</g>
<g>
</g>
<g>
</g>
<g>
</g>
<g>
</g>
<g>
</g>
<g>
</g>
<g>
</g>
<g>
</g>
<g>
</g>
<g>
</g>
<g>
</g>
<g>
</g>
<g>
</g>
<g>
</g>
<g>
</g>
</svg>
