<svg height="511pt" viewBox="-89 0 511 511.99989" width="511pt" xmlns="http://www.w3.org/2000/svg"><path d="m326.433594 165.464844c0-86.941406-69.734375-157.59375-156.320313-159.082032-87.0625-1.496093-159.691406 68.015626-161.847656 155.066407-1.417969 57.398437 27.683594 108.503906 72.691406 137.652343 5.953125 3.851563 11.089844 8.835938 14.933594 14.792969 18.203125 28.191407 36.160156 58.453125 54.816406 111.820313 5.507813 15.753906 27.742188 15.722656 33.246094-.027344 24.371094-69.730469 56.917969-115.101562 56.242187-114.066406 2.890626-4.449219 6.691407-8.25 11.191407-11.058594 45.09375-28.113281 75.046875-78.148438 75.046875-135.097656zm0 0" fill="#f25c5c"/><path d="m167.324219 274.199219c-61.070313 0-110.753907-49.683594-110.753907-110.753907 0-61.070312 49.683594-110.753906 110.753907-110.753906 61.070312 0 110.753906 49.683594 110.753906 110.753906 0 61.066407-49.683594 110.753907-110.753906 110.753907zm0 0" fill="#00c3ff"/><path d="m86.628906 163.445312c0-55.972656 41.738282-102.375 95.722656-109.730468-4.914062-.671875-9.929687-1.023438-15.027343-1.023438-61.070313 0-110.753907 49.683594-110.753907 110.753906 0 61.070313 49.683594 110.753907 110.753907 110.753907 5.097656 0 10.113281-.355469 15.027343-1.027344-53.984374-7.355469-95.722656-53.753906-95.722656-109.726563zm0 0" fill="#00aaf0"/><path d="m189.023438 482.59375c0 11.984375-9.714844 21.699219-21.699219 21.699219s-21.699219-9.714844-21.699219-21.699219 9.714844-21.699219 21.699219-21.699219 21.699219 9.714844 21.699219 21.699219zm0 0" fill="#f25c5c"/><path d="m180.765625 425.714844c-18.652344-53.367188-36.613281-83.628906-54.816406-111.820313-3.84375-5.957031-8.980469-10.941406-14.933594-14.796875-45.007813-29.144531-74.109375-80.25-72.691406-137.648437 2.007812-81.074219 65.144531-146.925781 144.140625-154.378907-4.074219-.382812-8.195313-.617187-12.351563-.6875-87.0625-1.496093-159.691406 68.015626-161.847656 155.066407-1.417969 57.398437 27.683594 108.503906 72.691406 137.648437 5.953125 3.855469 11.089844 8.839844 14.933594 14.796875 18.203125 28.191407 36.160156 58.453125 54.816406 111.820313 5.074219 14.511718 24.339844 15.617187 31.644531 3.382812-.617187-1.035156-1.15625-2.15625-1.585937-3.382812zm0 0" fill="#e54a4a"/><path d="m171.675781 482.59375c0-7.097656 3.40625-13.398438 8.675781-17.355469-3.628906-2.730469-8.140624-4.34375-13.027343-4.34375-11.984375 0-21.699219 9.714844-21.699219 21.699219s9.714844 21.699219 21.699219 21.699219c4.886719 0 9.398437-1.617188 13.027343-4.34375-5.269531-3.957031-8.675781-10.257813-8.675781-17.355469zm0 0" fill="#e54a4a"/><path d="m272.070312 127.449219-78.957031 78.957031c-9.179687-9.179688-18.859375-18.859375-28.636719-28.636719 15.414063-23.15625 15.417969-53.65625 0-76.820312l41.351563-41.351563c-10.179687-3.789062-21.0625-6.117187-32.394531-6.738281-31.972656 31.972656-63.984375 63.988281-66.933594 66.933594-9.804688-9.804688-18.546875-18.546875-25.566406-25.566407-5.929688 7.386719-10.933594 15.542969-14.835938 24.296876 24.441406 24.441406 60.136719 60.136718 60.214844 60.21875l-49.066406 49.066406c5.398437 7.535156 11.722656 14.367187 18.800781 20.332031l49.832031-49.832031c.003906 0 37.445313 37.445312 37.449219 37.445312 2.863281 2.863282 16.511719 16.515625 28.914063 28.914063 8.753906-3.898438 16.914062-8.902344 24.300781-14.832031-6.535157-6.53125-14.679688-14.679688-23.863281-23.863282l65.363281-65.367187c-.292969-11.574219-2.375-22.714844-5.972657-33.15625zm-127.835937 30.078125c-6.625-6.625-11.632813-11.632813-18.167969-18.167969 10.875-10.871094 8.578125-8.578125 18.167969-18.164063 5.5 11.398438 5.503906 24.921876 0 36.332032zm0 0" fill="#e4eaf8"/><path d="m88.863281 141.289062c2.082031-10.207031 5.5625-19.90625 10.246094-28.886718-6.824219-6.824219-12.972656-12.972656-18.175781-18.175782-6.46875 8.058594-12.144532 17.796876-14.832032 24.296876 7.027344 7.03125 14.984376 14.988281 22.761719 22.765624zm0 0" fill="#d8dce5"/><path d="m96.046875 248.140625 15.183594-15.179687c-5.953125-7.359376-10.976563-15.496094-14.90625-24.230469l-19.078125 19.078125c4.535156 6.804687 12.589844 15.097656 18.800781 20.332031zm0 0" fill="#d8dce5"/><path d="m167.121094 45.367188c-65.746094 0-118.265625 53.519531-118.265625 118.265624 0 65.34375 53.195312 118.269532 118.265625 118.269532 66.132812 0 119.90625-54.636719 118.230468-121.289063v-.003906c0-.003906 0-.007813 0-.007813-1.613281-63.96875-54.21875-115.234374-118.230468-115.234374zm24.363281 17.9375-32.523437 32.523437c-2.53125 2.53125-2.925782 6.496094-.941407 9.476563 13.632813 20.484374 13.632813 48.007812 0 68.492187-1.984375 2.980469-1.585937 6.945313.941407 9.476563l28.636718 28.636718c2.933594 2.933594 7.691406 2.933594 10.625 0l69.863282-69.863281c1.132812 5.308594 1.824218 10.640625 2.109374 15.769531l-63.03125 63.03125c-2.933593 2.9375-2.933593 7.695313 0 10.628906l17.691407 17.691407c-3.609375 2.445312-7.367188 4.660156-11.25 6.628906l-25.164063-25.167969-.042968.046875c-1.210938-1.3125-37.492188-37.726562-38.550782-38.429687-2.980468-1.988282-6.949218-1.59375-9.484375.9375l-44.789062 44.792968c-3.042969-2.929687-5.90625-6.039062-8.570313-9.308593l44.421875-44.421875c2.933594-2.933594 2.933594-7.691406 0-10.628906l-56.464843-56.464844c1.964843-3.882813 4.179687-7.640625 6.625-11.25l19.398437 19.394531c2.929687 2.933594 7.691406 2.9375 10.628906.003906l64.503907-64.507812c5.214843.457031 10.289062 1.28125 15.367187 2.511719zm-37-2.136719-48.1875 48.1875-15.339844-15.339844c16.207031-17.714844 38.496094-29.777344 63.527344-32.847656zm-85.707031 71.054687 46.707031 46.710938-37.214844 37.210937c-9.132812-15.394531-14.386719-33.347656-14.386719-52.511719 0-10.945312 1.71875-21.5 4.894532-31.410156zm38.394531 115.414063 38.507813-38.511719c29.1875 29.1875 31.984374 31.988281 52.855468 52.855469-9.910156 3.171875-20.464844 4.894531-31.414062 4.894531-22.335938 0-43.039063-7.132812-59.949219-19.238281zm129.570313-7.835938-13.640626-13.636719 45.914063-45.914062c-3.800781 23.410156-15.503906 44.207031-32.273437 59.550781zm26.410156-114.074219-70.242188 70.242188-19.148437-19.144531c12.902343-23.214844 12.90625-51.332031 0-74.542969l33.683593-33.683594c25.355469 10.796875 45.535157 31.453125 55.707032 57.128906zm0 0"/><path d="m196.335938 482.785156c0-16.109375-13.105469-29.214844-29.214844-29.214844s-29.214844 13.105469-29.214844 29.214844 13.105469 29.214844 29.214844 29.214844 29.214844-13.105469 29.214844-29.214844zm-43.398438 0c0-7.820312 6.363281-14.1875 14.183594-14.1875 7.824218 0 14.1875 6.367188 14.1875 14.1875 0 7.820313-6.363282 14.183594-14.1875 14.183594-7.820313 0-14.183594-6.363281-14.183594-14.183594zm0 0"/><path d="m138.71875 116.070312-18.167969 18.167969c-2.933593 2.933594-2.933593 7.691407 0 10.628907l18.167969 18.164062c3.636719 3.636719 9.824219 2.625 12.082031-2.046875 6.472657-13.417969 6.472657-29.441406 0-42.863281-2.253906-4.671875-8.441406-5.6875-12.082031-2.050782zm1.699219 27.40625-3.925781-3.925781 3.925781-3.925781c.296875 2.609375.296875 5.246094 0 7.851562zm0 0"/><path d="m317.574219 147.015625c.46875 3.808594 3.707031 6.601563 7.449219 6.601563.308593 0 .613281-.019532.925781-.058594 4.117187-.503906 7.050781-4.25 6.542969-8.371094-9.359376-76.367188-70.492188-136.753906-147.015626-145.140625-4.140624-.453125-7.835937 2.523437-8.289062 6.648437s2.527344 7.835938 6.652344 8.289063c70.15625 7.691406 125.152344 61.984375 133.734375 132.03125zm0 0"/><path d="m148.757812.0546875c-82.441406 9.1601565-146.15625 78.5468745-148.207031 161.3984375-1.480469 59.953125 28.90625 113.570313 76.121094 144.148437 5.238281 3.390626 9.511719 7.617188 12.703125 12.558594 17.109375 26.5 35.375 56.839844 54.039062 110.226563 7.847657 22.457031 39.582032 22.429687 47.429688-.027344 20.464844-58.546875 49.75-104.851563 55.457031-112.460937 2.320313-3.566407 5.386719-6.597657 8.863281-8.765626 43.792969-27.308593 72.792969-73.574218 77.796876-125.238281.398437-4.128906-2.625-7.804687-6.753907-8.203125-4.128906-.402344-7.804687 2.625-8.207031 6.753906-4.503906 46.511719-30.964844 89.105469-70.785156 113.933594-6.964844 4.339844-13.46875 9.949219-32.894532 44.960938-10.207031 18.398437-25.027343 47.914062-37.660156 84.0625-3.164062 9.050781-15.898437 9.066406-19.058594.027344-19.207031-54.949219-37.996093-86.160157-55.597656-113.421876-4.351562-6.738281-10.125-12.464843-17.160156-17.023437-44.6875-28.9375-70.578125-77.96875-69.265625-131.15625 1.867187-75.375 59.835937-138.5 134.84375-146.835937 4.125-.457032 7.097656-4.171876 6.636719-8.296876-.457032-4.125-4.183594-7.097656-8.300782-6.6406245zm0 0"/></svg>