<svg id="Layer_1" data-name="Layer 1" xmlns="http://www.w3.org/2000/svg" xmlns:xlink="http://www.w3.org/1999/xlink" viewBox="0 0 1000 1000"><defs><style>.cls-1{fill:none;}.cls-2{fill:url(#linear-gradient);}.cls-3{fill:url(#linear-gradient-2);}.cls-4{fill:#342c2a;}.cls-5{fill:#322a27;}.cls-6{fill:#e4252d;}</style><linearGradient id="linear-gradient" x1="221.88" y1="529.21" x2="636.13" y2="529.21" gradientUnits="userSpaceOnUse"><stop offset="0" stop-color="#a11d21"/><stop offset="1" stop-color="#ed1c24"/></linearGradient><linearGradient id="linear-gradient-2" x1="227.11" y1="364.77" x2="805.49" y2="364.77" xlink:href="#linear-gradient"/></defs><title>logo</title><rect class="cls-1" width="1000" height="1000"/><path class="cls-2" d="M373.09,539.49c-1,3.08-2.78,6.13-2.94,9.25-.4,7.8-.82,15.73.17,23.43a93.76,93.76,0,0,0,5.85,23.74,236.26,236.26,0,0,0,15.29,29.83c9.9,16.75,23.93,29.87,39.21,41.58a168.36,168.36,0,0,0,23,15.19c8,4.29,16.85,7.15,25.55,11.31-5.75-.34-11.56-.29-17.24-1.12-8.24-1.21-16.43-2.91-24.58-4.67-5.57-1.2-11-2.84-16.56-4.3a118.66,118.66,0,0,1-11.57-3.19c-11.37-4.3-22.58-9-34-13.26-18.63-6.93-35.33-17.4-51.3-28.82-18.66-13.35-36.5-27.92-51.06-45.87-10.49-12.94-20.66-26.18-30.19-39.84-5.85-8.38-10.35-17.73-15.19-26.78a76.47,76.47,0,0,1-5.51-13c-.48-1.53.42-4.13,1.58-5.44,6.64-7.45,13.3-14.89,20.42-21.87,10-9.81,20-19.6,30.68-28.68,9.79-8.36,20.23-16,30.68-23.56,11.33-8.17,22.72-16.32,34.62-23.6,10.9-6.68,22.45-12.33,33.84-18.18,6.28-3.23,12.72-6.19,19.26-8.84s13-4.73,19.63-6.93c4.56-1.52,9.15-3,13.81-4.13,6.55-1.62,13.21-2.81,19.77-4.42,16.33-4,32.92-2.35,49.43-2.4a85.53,85.53,0,0,1,27.72,4.87c7,2.37,14.49,3.56,21.33,6.33a163.18,163.18,0,0,1,23.29,11.65c11.61,7,22.59,15,31.81,25.17a142.47,142.47,0,0,1,21.89,31.62c6,11.83,9.76,24.3,12.51,37,1.7,7.87,1.87,16.17,1.83,24.28-.06,15-2,29.94-7.29,44.08-9.54,25.29-24.27,46.81-46.65,62.67-9.49,6.72-19.24,12.75-30.45,16.21-7.51,2.32-14.74,6.28-22.38,7.22-13,1.59-25.91,6.88-39.24,1.72-1.84-.71-4-.62-6-.85a87.71,87.71,0,0,1-27.06-7.4c-4.62-2.13-9.61-3.58-14-6.09-7.62-4.36-15.41-8.68-22.23-14.14a132.42,132.42,0,0,1-35.06-42.17C383,562,381.26,556.27,379,550.82c-1.5-3.69-3-7.36-4.56-11Z"/><path class="cls-3" d="M227.11,254.42c9.56-20.55,22.16-39.28,36.44-56.82,38-46.64,85.58-79.83,143-97.7,84.79-26.4,166.91-18.37,244.28,25.24,66.64,37.56,112.48,93.7,137.6,166,18,51.68,22.07,104.94,10.82,158.51C788.7,499.86,767.68,545.6,734.14,585c-19.63,23-41.73,43.33-67.17,59.78l-.93-1c3.1-2.62,6.35-5.09,9.26-7.9,8.72-8.4,17.83-16.48,25.81-25.55A150.21,150.21,0,0,0,724,574.68a146.31,146.31,0,0,0,6.81-18.2c2.51-8,5.38-15.92,6.65-24.11,2.47-16,5-32.13,2.26-48.45-1.26-7.35-1.89-14.82-3.54-22.07-2.61-11.47-5.1-23.07-9-34.13a261.3,261.3,0,0,0-15.3-35,255.27,255.27,0,0,0-19-29.84c-8.55-11.85-17.21-23.74-27.05-34.49a287.65,287.65,0,0,0-33-31c-15.43-12.25-31.66-23.57-48.16-34.36-9.18-6-19.56-10.18-29.44-15.11-5.9-2.94-11.73-6.13-17.87-8.5-7.89-3-16-5.43-24.1-8-8.54-2.74-17.09-5.47-25.69-8a89.23,89.23,0,0,0-12.18-2.66c-14.64-2.13-29.42-3.47-43.93-6.25-19.28-3.7-38.64-2.19-57.94-1.87-11.48.19-23,2.5-34.39,4.1-7.39,1-14.78,2.22-22,3.86-8.56,1.93-17,4.29-25.48,6.73-7,2-14,4.11-20.7,6.78s-13.32,6-19.81,9.29c-7.63,3.89-15.1,8.1-22.63,12.17Z"/><path class="cls-4" d="M194.53,422.81c0-8.66-.07-16.53,0-24.4.12-11.25-.23-22.54.71-33.73.75-8.94,3.1-17.75,4.74-26.62a33.7,33.7,0,0,0,.79-4.12c.39-6.84,3.41-11.69,9.87-14.55,11.68-5.17,23.11-10.92,34.89-15.84,6.61-2.76,13.68-4.51,20.61-6.45,12.91-3.61,25.78-7.51,38.86-10.35,9.21-2,18.82-2.15,28.16-3.68,26.59-4.35,53.34-2.11,80-1.95,10.79.07,21.6,2.68,32.35,4.47,11.31,1.89,22.6,4,33.81,6.39,5.33,1.14,10.44,3.24,15.69,4.8,6.72,2,13.53,3.71,20.18,5.89,5.08,1.66,10,3.84,15,5.83,4.39,1.76,8.75,3.59,13.13,5.39l-.17,1.41-13.65-1.95c-2.28-.33-4.54-.7-6.82-1-6.63-.9-13.23-2.24-19.89-2.55-10.29-.48-20.62-.3-30.93-.3-7,0-14.1-.34-21.07.38-10.14,1.06-20.19,2.92-30.27,4.46-6.89,1.05-13.79,2-20.64,3.27-4.24.76-8.45,1.76-12.6,2.93-9,2.54-18.17,4.79-27,8-14.33,5.25-28.56,10.86-42.57,16.92-10.92,4.72-21.66,10-32.09,15.69-12.29,6.75-24.61,13.63-36.11,21.62-17.82,12.38-35,25.75-52.39,38.69A25.59,25.59,0,0,1,194.53,422.81Z"/><path class="cls-5" d="M939.31,831.85c0,15.64.24,31.29-.16,46.92a30.75,30.75,0,0,1-3.43,12.41c-2.72,5.48-5.65,11.25-9.91,15.46-3.73,3.69-9.28,5.73-14.3,7.86a56.34,56.34,0,0,1-12.09,3.19c-8.9,1.58-17.28-1.49-25.65-3.71-2.13-.57-4.47-3.06-5.29-5.22-1.56-4.08.18-4.7,4.42-4.41,9.15.63,18.47,1.18,27.52.07,5.93-.73,10.28-6.11,12.23-11.79,2.14-6.24,3-12.94,4.22-19.48a4.12,4.12,0,0,0-1.38-3.51c-.87-.52-2.54.06-3.78.44-6.56,2-12.73,4.12-20.16,2.79-11.72-2.1-19.9-8.82-25.72-18a63.26,63.26,0,0,1-9.7-39.58c1-12.31,5.51-22.87,14.42-31.71,7.7-7.63,17-9.32,27-8.47,4,.34,7.92,2,11.93,2.26,5.4.4,10.86.07,16.29.06,3.13,0,6.25,0,9.38,0s4.24,1.36,4.21,4.61c-.16,16.58-.07,33.16-.07,49.74Zm-22.84-6.72H916c0-10.94.07-21.87-.09-32.81,0-1.31-1-3.54-2-3.76-4.79-1.15-9.9-3-14.55-2.33-10.66,1.59-20.41,13.84-20,24.65.35,9.55-1.61,19.26,2.35,28.63,2.88,6.8,5.25,14,12,17.81a22,22,0,0,0,17.33,2.27c5.18-1.32,5.33-3.59,5.35-7.24C916.5,843.27,916.48,834.19,916.48,825.12Z"/><path class="cls-5" d="M590.19,824.54c0,14.07-.13,28.15.08,42.22.06,3.82-1,5.49-5,5.34-4.21-.16-8.44.12-12.66,0a7.72,7.72,0,0,1-3.73-1.39c-2.95-2-5.45-2.2-8.95-.49-3.17,1.55-7.2,1.52-10.88,1.79-18.62,1.39-30.93-12-36.45-26.2a74.89,74.89,0,0,1-5.51-29.08c.24-12.08,4.91-22.13,12.56-31.19,7.32-8.66,16.79-11.25,27.54-10.28,4.45.4,8.82,1.62,13.25,2.32a34.65,34.65,0,0,0,6,.4c6.09-.1,12.18-.23,18.26-.54,4-.2,5.55,1.19,5.48,5.39-.21,13.91-.08,27.83-.08,41.75ZM531,820.74l-1.29.17c1.19,6.8,1.65,13.84,3.79,20.32,2.06,6.24,5.34,12.14,11.52,15.91,5.2,3.17,10.51,1.71,15.84,1.61s6.37-1.32,6.32-6.72c-.19-18.58-.4-37.17-.49-55.75,0-7.41-.07-7-6.77-9.7-7.7-3.1-20,1.46-24.13,9.42S529.37,811.84,531,820.74Z"/><path class="cls-6" d="M265.8,825.24c0,14.08-.12,28.16.09,42.23.05,3.47-1.23,4.4-4.34,4.31-4.22-.12-9.17,1.42-12.53-.28-9.16-4.62-17.71.78-26.58.31-11.85-.62-20.34-6.09-27.36-14.57-5.55-6.71-8.38-14.86-9.63-23.46-.85-5.83-2-11.71-1.93-17.55.15-9.21,3.61-17.34,8.63-25.26a37.27,37.27,0,0,1,13.36-13c6.14-3.51,13-3.55,19.56-2.47a186,186,0,0,0,34.44,2c6.07-.13,6.11.14,6.13,6.41q0,20.65,0,41.29Zm-21.73,1.89h-.93c0-11.23.1-22.46-.1-33.69,0-1.82-1-5-2.1-5.2-5.91-1.26-11.65-4.73-18.08-1.33-8.43,4.47-13,11.32-15.17,20.52A58,58,0,0,0,209.56,841c2.29,6.45,5.62,13.25,12.56,16,4.41,1.72,9.56,1.89,14.4,2.05s7.46-2.75,7.51-7.56C244.14,843.36,244.07,835.25,244.07,827.13Z"/><path class="cls-5" d="M761.37,826.14c0-13.45,0-26.89,0-40.34,0-8.13.12-8.17,8.05-8.1,3.6,0,7.19.15,10.79,0s5,1.38,4.82,5.05c-.25,5.81.37,6.17,5.57,3.86,4.92-2.19,9.76-4.58,14.63-6.87,7.58-3.57,15-2.53,21.67,1.85,4.57,3,5.5,8.74,5.55,13.87.24,24.08.1,48.16.21,72.24,0,3.08-1.28,4.32-4.12,4.34-5,0-10-.06-15,0-3,0-4.07-1.11-4.06-4.21,0-20.48-.1-41-.19-61.45a15.49,15.49,0,0,0,0-2.81c-.72-3.73,1.82-8.51-3-10.93-3.66-1.83-11.82,1.08-15.76,4-5.1,3.74-5.69,8.43-5.61,14.17.28,18.92,0,37.84.18,56.76,0,3.58-1.18,4.72-4.59,4.59-4.84-.19-9.69-.16-14.54,0-3.39.08-4.64-1.19-4.59-4.72.18-13.76.07-27.52.07-41.28Z"/><path class="cls-6" d="M293.73,825.31q0-20.65,0-41.3c0-5.71.38-6.1,6.13-6.17,4.07,0,8.14.13,12.2,0,3.38-.09,4.91,1.37,4.83,4.73-.09,3.81.21,6.79,5.44,4.09s10.72-4.68,16-7.13c11.66-5.39,24.84,1.86,25.58,14.66.63,10.92.33,21.89.37,32.83,0,13.45-.09,26.91.1,40.36,0,3.12-1,4.28-4,4.25-5.32-.05-10.64,0-16,0-2.41,0-3.42-.92-3.41-3.73,0-23.15-.2-46.29-.22-69.44,0-4.22-1.67-5.65-5.86-5.88-6.76-.37-11.75,3-16.13,7.19-1.48,1.43-1.77,4.6-1.79,7-.18,20-.28,40-.12,60.07,0,3.77-1.11,5-4.74,4.91-4.69-.17-9.39-.16-14.07,0-3.55.16-4.49-1.27-4.44-4.71.18-13.92.08-27.84.08-41.77Z"/><path class="cls-5" d="M743.58,859v8.92c-10,4.42-20.65,6.95-31.75,5.94-12.2-1.11-23.23-6.28-30.29-16.13-8.47-11.82-12.31-25.38-10.15-40.56,2-14.18,7.85-25.65,18.93-34.57,6.21-5,13.42-5.81,21-5.15,13.41,1.16,21.2,9.92,27.27,20.68a52.65,52.65,0,0,1,6.35,23.58c.27,5.41-.41,6-5.62,6l-39.87-.11c-4.48,0-5,1-4.54,5.73.94,8.79,3.63,16.84,10.39,22.74,6.26,5.46,14.21,6.39,22.15,5.95,3.58-.2,7.06-1.82,10.63-2.59A40,40,0,0,1,743.58,859Zm-35.67-44v-.07c3,0,5.92.07,8.88,0,4.2-.12,5.71-1.85,4.91-5.91-1-5.17-1.59-10.58-3.63-15.34a18.93,18.93,0,0,0-7.77-8.6c-3-1.64-6.67.29-8.66,3.57a49.28,49.28,0,0,0-7.17,21.75c-.25,3,1.49,4.61,4.56,4.61Z"/><path class="cls-5" d="M461.37,833.47c0-17.21.07-34.42-.05-51.63,0-3.65,1.3-5.12,4.95-5a135,135,0,0,0,13.61,0c4.23-.27,5,2,5,5.45,0,9.23,0,18.46.07,27.69.08,20.65.26,41.31.2,62,0,14.12-3.7,26.82-16.18,35.17-7.64,5.11-16.52,6.87-25.53,7.7-1,.09-3-1.62-3-2.46.07-2.59-.95-6.07,2.81-7.15,8.15-2.34,14.1-7.06,17-15.2a18.53,18.53,0,0,0,1.32-5.84c.1-16.9.06-33.79.06-50.69Z"/><path class="cls-6" d="M69.28,830.54c0-12-.12-24.06.06-36.09.05-3.64-1.2-5.87-4.79-6.11s-4-2.21-4-5c.07-3-.18-6.34,3.89-6.86s5-2.79,4.82-6.49c-.24-3.89,0-7.81-.07-11.71-.1-3.06.91-4.72,4.26-4.61,4.84.15,9.68.15,14.52.15,2.59,0,3.6,1.18,3.53,3.75-.12,4.52.15,9.05-.11,13.56-.25,4.34,1.88,6,5.81,6.07,2.34,0,4.69-.14,7-.08,4.25.1,4.9,1.37,4.5,7.65-.23,3.66-2.07,5-5.55,4.44-11-1.64-11.67-1-11.58,9.69q.26,31.83.49,63.65c.06,9.21,0,9.31-9,9.16-4.47-.07-10.37,1-13-1.37-2.24-2.05-.8-8.21-.83-12.56C69.24,848.67,69.28,839.6,69.28,830.54Z"/><path class="cls-5" d="M644.29,830c0,12.51-.11,25,.07,37.53,0,3.33-1.22,4.57-4.32,4.54-4.22,0-8.45-.21-12.66,0-3.85.21-5.21-1.16-5.19-5.12.12-23.46,0-46.91,0-70.37,0-6.77,0-6.81-6.71-8.25-3.7-.79-2.66-3.67-2.73-6s-.28-5.22,3.19-5.08c5.7.23,6.35-3.05,6.05-7.56a74.69,74.69,0,0,1-.06-12.17c.14-1.4,2-3.63,3.28-3.76,4.8-.48,9.67-.14,14.5-.34,3.35-.14,5,.95,4.76,4.52-.26,4.82-.09,9.67-.39,14.49-.22,3.53,1.27,4.89,4.64,4.73,2.18-.1,4.38-.09,6.56-.05,6.28.11,6,.16,6.86,6.51.5,3.76-.93,4.86-4.22,4.83s-6.57.06-9.85-.09c-3-.13-4.18,1.1-4.15,4.14.1,12.5,0,25,0,37.49Z"/><path class="cls-6" d="M388.11,861.41c4,.8,6.42,1.12,8.74,1.79,7,2,12.5.24,16.87-5.55,2.75-3.65,2.88-13.86.11-17.62-6-8.15-12.26-16.12-18.06-24.41-7-10-6.87-25.93,3.35-33.44,6.33-4.66,13.77-6.08,21.46-5.93,3.73.07,7.44.92,11.16,1.38,3.11.38,4.61,2.5,4,5.16-.24,1.09-2.91,1.79-4.58,2.36-3.93,1.34-8.26,1.86-11.81,3.84-6.81,3.81-8,10.11-3.46,16.65,6.78,9.89,13.86,19.57,20.61,29.47,8.26,12.13,2.37,33-14,36.69-6.19,1.38-12.2,2.52-18.37,2a37.85,37.85,0,0,1-13.31-3.3C389.19,869.72,389.23,865.53,388.11,861.41Z"/><path class="cls-6" d="M149.1,788.94l15-17.1c2.72,4.68,5.3,8.65,7.27,12.91.42.91-1.15,3.13-2.28,4.28-5.77,5.82-12.82,10.74-17.19,17.44-3.43,5.26-4.67,12.59-5,19.09-.74,13.88-.4,27.82-.21,41.73.05,3.64-1.19,4.69-4.57,4.53-4.68-.22-9.38-.17-14.07-.18-2.78,0-4.22-.85-4.2-4.09.11-27.52,0-55,.09-82.55,0-6.88.17-6.92,7-7.11,3.28-.09,6.57.14,9.85,0,3.8-.19,6,1,5.84,5.24a23.29,23.29,0,0,0,.91,5Z"/><path class="cls-5" d="M473.38,731.78c9.64.14,14.46,5.78,14.47,13.34,0,8.27-5.15,13-13.45,13.23-9.08.23-13.85-6.14-13.86-13.73C460.53,738.85,465.25,730.88,473.38,731.78Z"/></svg>